# xmcd
#
# Track frame offsets:
#	150
#	12910
#	26806
#	43501
#	55839
#	68182
#	82014
#	95139
#	107352
#	119775
#	135095
#	149876
#	161843
#	174528
#	189549
#	203843
#	217443
#	233333
#	245299
#	258999
#	267795
#	278508
#	294119
#	305980
#	322845
#	336448
#
# Disc length: 4621 seconds
#
# Revision: 0
# Processed by: cddbd v1.5.2PL0 Copyright (c) Steve Scherf et al.
# Submitted via: audiograbber 1.83.01
#
DISCID=87120b1a
DTITLE=JOAN SEBASTIAN - MAS ALLA DEL SOL
DYEAR=1900
DGENRE=
TTITLE0=REFLEXIONES DE ESTE GALLO
TTITLE1=CUANDO MURIO MI CABALLO
TTITLE2=AMOR LIMOSNERO
TTITLE3=SOL
TTITLE4=INVITAME UN CIGARRO
TTITLE5=VIVIRE LO MIO
TTITLE6=GÜERITA DE HUENTITAN
TTITLE7=LA MEDECINA
TTITLE8=MAS ALLA DEL SOL
TTITLE9=GUERRERO ES
TTITLE10=EN LA BANCA
TTITLE11=ESO Y MAS
TTITLE12=SENTIMENTAL
TTITLE13=ASI TE QUIERO
TTITLE14=DESAMOR
TTITLE15=BANDIDO DE AMORES
TTITLE16=EL PEOR DE TUS ANTOJOS
TTITLE17=EL VIEJO JOVEN
TTITLE18=ZANGOLOTEADITO
TTITLE19=LA CARTA
TTITLE20=OJITOS DE GOLONDRINA
TTITLE21=ME LA ESCONDIERON SUS PADRES
TTITLE22=EN UN JARIPEO
TTITLE23=PANCHO BIGOTES
TTITLE24=EL GALLO CELOSO
TTITLE25=MUCHACHITA DE OJOS CLAROS
EXTD=
EXTT0=
EXTT1=
EXTT2=
EXTT3=
EXTT4=
EXTT5=
EXTT6=
EXTT7=
EXTT8=
EXTT9=
EXTT10=
EXTT11=
EXTT12=
EXTT13=
EXTT14=
EXTT15=
EXTT16=
EXTT17=
EXTT18=
EXTT19=
EXTT20=
EXTT21=
EXTT22=
EXTT23=
EXTT24=
EXTT25=
PLAYORDER=
